:SAMPLES-PER-SECOND 30
:FULLY-SPECIFIED
:DEGREES
1131
root  -5.41591 39.9748 30.581 -126.446 -82.4534 118.437
RightUpLeg  -17.3506 -0.518849 -7.03933
RightLeg  54.7939 -3.32592 -5.46721
RightFoot  3.47611 -0.18635 1.62446
RightToes  0.000482159 0.542163 -0.142577
Spine  12.3484 -1.1417 -3.34214
Spine1  6.51934 -1.82451 0.65095
HEad  8.31294 -14.8748 3.40348
LeftShoulder1  7.49452 -11.2998 -44.0684
LeftArm  -8.88125 11.1934 -26.1193
LeftForeArm  30.8012 -21.5895 -3.37191
LeftHand  -0.25398 0.0180481 5.50724
RightShoulder  4.33522 7.69795 32.7589
RightArm  2.48091 -15.841 42.5879
RightForeArm  5.81887 25.0504 5.04718
RightHand  -1.31864 3.68683 -17.0708
LeftUpLeg  2.98589 11.2288 -5.11457
LeftLeg  14.9009 11.2429 -0.272827
LeftFoot  -9.88202 0.0387471 1.58524
LeftToes  1.06246e-005 4.65854e-005 -8.18502e-006
1132
root  -6.94009 39.954 30.7912 -129.675 -82.359 121.397
RightUpLeg  -18.9776 -2.76842 -5.60716
RightLeg  45.4213 -4.01523 -4.66976
RightFoot  0.990488 -0.216952 2.08768
RightToes  0.000482159 0.542163 -0.142577
Spine  13.0496 -1.30307 -4.18903
Spine1  5.91769 -2.4606 1.87656
HEad  7.9088 -14.6449 4.14274
LeftShoulder1  7.42238 -11.3362 -43.5095
LeftArm  -10.7068 7.90828 -25.1479
LeftForeArm  31.8314 -24.8535 -3.61
LeftHand  -0.25398 0.0180481 5.50724
RightShoulder  4.37484 7.78733 32.8036
RightArm  2.73337 -16.6471 42.2838
RightForeArm  5.5236 26.7059 5.45307
RightHand  -1.39208 3.99043 -17.4361
LeftUpLeg  6.45951 8.46676 -5.04074
LeftLeg  13.6396 14.3265 -1.27539
LeftFoot  -11.5693 0.0722397 1.38185
LeftToes  1.06246e-005 4.65854e-005 -8.18502e-006
1133
root  -8.55136 39.7263 30.9647 -129.466 -81.9232 120.93
RightUpLeg  -19.4099 -7.08033 -4.35443
RightLeg  33.9169 -3.99186 -3.27039
RightFoot  -0.540226 -0.300598 3.12586
RightToes  0.000482159 0.542163 -0.142577
Spine  13.1895 -1.4106 -5.69544
Spine1  5.8206 -3.08013 3.05705
HEad  7.25092 -14.5367 4.75941
LeftShoulder1  7.39067 -11.4055 -43.1
LeftArm  -12.8692 4.49574 -23.9738
LeftForeArm  32.6245 -27.5906 -4.18903
LeftHand  -0.25398 0.0180481 5.50724
RightShoulder  4.39233 7.80283 32.9051
RightArm  2.97809 -16.7914 41.9775
RightForeArm  5.33569 27.2376 5.58633
RightHand  -1.40947 4.04632 -17.5466
LeftUpLeg  9.37576 6.76057 -5.86402
LeftLeg  13.7618 16.5763 -1.48946
LeftFoot  -13.8682 0.115389 1.41639
LeftToes  1.06246e-005 4.65854e-005 -8.18502e-006
1134
root  -10.2518 39.4972 31.1205 -126.613 -81.7781 118.32
RightUpLeg  -19.2951 -13.1362 -2.60927
RightLeg  20.7595 -3.73345 -1.23995
RightFoot  -0.918985 -0.325714 3.49684
RightToes  0.000482159 0.542163 -0.142577
Spine  12.1015 -1.74962 -6.85163
Spine1  6.54514 -3.85369 4.54073
HEad  6.59311 -14.6652 5.21296
LeftShoulder1  7.43009 -11.5395 -42.9351
LeftArm  -14.4167 1.00932 -22.6317
LeftForeArm  32.5325 -29.4321 -4.60265
LeftHand  -0.25398 0.0180481 5.50724
RightShoulder  4.355 7.71926 32.8616
RightArm  3.26613 -16.4158 41.8331
RightForeArm  5.20332 26.4611 5.41216
RightHand  -1.39549 3.97166 -17.5093
LeftUpLeg  12.2509 5.5838 -6.85407
LeftLeg  13.0383 17.8575 -1.60482
LeftFoot  -15.7878 0.151845 1.48127
LeftToes  1.06246e-005 4.65854e-005 -8.18502e-006
1135
root  -12.0154 39.2622 31.2366 -122.589 -81.6472 114.963
RightUpLeg  -18.3247 -13.8565 -2.81771
RightLeg  6.77817 -8.70543 2.79161
RightFoot  -1.18657 -0.372981 4.10404
RightToes  0.000482159 0.542163 -0.142577
Spine  10.1791 -2.13794 -7.76115
Spine1  7.60291 -4.59272 6.01895
HEad  6.26084 -15.2339 5.46351
LeftShoulder1  7.50334 -11.7542 -42.7381
LeftArm  -15.3787 -2.18183 -21.5552
LeftForeArm  32.3447 -30.2977 -4.81085
LeftHand  -0.25398 0.0180481 5.50724
RightShoulder  4.31964 7.63144 32.85
RightArm  3.43502 -16.0309 41.6818
RightForeArm  5.00235 24.5844 5.00091
RightHand  -1.36943 3.90713 -17.3071
LeftUpLeg  15.0341 5.06086 -7.56316
LeftLeg  11.7368 18.0059 -2.11409
LeftFoot  -17.3762 0.135384 0.620616
LeftToes  1.06246e-005 4.65854e-005 -8.18502e-006
1136
root  -13.8784 38.8737 31.292 -119.661 -80.9352 112.476
RightUpLeg  -16.9403 -7.72405 -5.55631
RightLeg  -4.352 -18.7182 7.69118
RightFoot  -2.24135 -0.458204 5.60067
RightToes  0.000482159 0.542163 -0.142577
Spine  8.67015 -2.25858 -9.06105
Spine1  7.87433 -4.96555 7.15871
HEad  6.60606 -16.0816 5.29914
LeftShoulder1  7.52942 -11.9403 -42.3455
LeftArm  -15.8438 -4.67329 -21.1785
LeftForeArm  32.6311 -30.6299 -4.87247
LeftHand  -0.25398 0.0180481 5.50724
RightShoulder  4.34024 7.64973 32.9709
RightArm  2.92905 -15.8762 41.3106
RightForeArm  5.21381 21.8305 4.74631
RightHand  -1.3161 3.7667 -16.8965
LeftUpLeg  17.5416 5.55875 -8.12512
LeftLeg  12.0663 17.178 -2.43331
LeftFoot  -18.9214 0.0448892 -1.03532
LeftToes  1.06246e-005 4.65854e-005 -8.18502e-006
1137
root  -15.7883 38.4547 31.3152 -119.741 -80.161 112.638
RightUpLeg  -17.8902 -8.0647 -5.32545
RightLeg  -5.41743 -21.0166 8.39023
RightFoot  -3.91878 -0.423851 6.07093
RightToes  0.000482159 0.542163 -0.142577
Spine  8.44792 -2.21493 -10.0037
Spine1  6.91524 -5.15085 8.29869
HEad  7.64069 -16.6835 4.54038
LeftShoulder1  7.47627 -11.9384 -42.0313
LeftArm  -16.1343 -5.9413 -21.4866
LeftForeArm  33.4798 -31.1094 -4.93839
LeftHand  -0.25398 0.0180481 5.50724
RightShoulder  4.35534 7.70097 32.9281
RightArm  0.200062 -15.8328 40.6863
RightForeArm  7.96273 18.2828 5.31117
RightHand  -1.1684 3.19972 -15.9833
LeftUpLeg  19.9435 7.49143 -7.94976
LeftLeg  13.8269 14.9633 -2.1662
LeftFoot  -19.657 -0.0830259 -2.77001
LeftToes  1.06246e-005 4.65854e-005 -8.18502e-006
1138
root  -17.7173 38.2213 31.3603 -123.1 -80.4758 116.291
RightUpLeg  -19.2233 -8.92894 -3.93406
RightLeg  -0.935477 -22.7269 7.46882
RightFoot  -2.60993 -0.189267 2.35123
RightToes  0.000482159 0.542163 -0.142577
Spine  8.98616 -2.44659 -8.8242
Spine1  5.32537 -5.57823 9.44291
HEad  8.91616 -16.7225 3.26687
LeftShoulder1  7.39801 -11.7647 -42.0665
LeftArm  -16.3422 -5.38464 -22.33
LeftForeArm  34.5695 -32.0539 -5.10209
LeftHand  -0.25398 0.0180481 5.50724
RightShoulder  4.25182 7.55232 32.5127
RightArm  -4.25533 -16.044 39.9175
RightForeArm  12.9599 14.508 5.96639
RightHand  -0.934497 2.19814 -14.462
LeftUpLeg  22.3877 12.4306 -4.96744
LeftLeg  15.7033 9.05188 -1.50309
LeftFoot  -19.2313 -0.271607 -5.54362
LeftToes  1.06246e-005 4.65854e-005 -8.18502e-006
1139
root  -19.832 38.0624 31.4101 -130.684 -81.7503 124.339
RightUpLeg  -22.5651 -14.6287 0.639008
RightLeg  9.06334 -17.8222 3.34794
RightFoot  -0.0241213 0.452496 -4.4222
RightToes  0.000482159 0.542163 -0.142577
Spine  9.13946 -3.19248 -5.41278
Spine1  3.42056 -6.02308 9.83163
HEad  9.89482 -16.3289 1.77879
LeftShoulder1  7.34808 -11.5927 -42.271
LeftArm  -16.1143 -2.87516 -23.855
LeftForeArm  35.6035 -33.2436 -5.33171
LeftHand  -0.25398 0.0180481 5.50724
RightShoulder  4.04022 7.15545 31.9584
RightArm  -8.61709 -16.8809 38.9832
RightForeArm  17.3986 11.4451 5.88249
RightHand  -0.746111 1.33853 -13.0202
LeftUpLeg  24.6886 19.5592 1.12624
LeftLeg  18.9282 0.120222 -0.788963
LeftFoot  -17.4145 -0.438032 -10.5425
LeftToes  1.06246e-005 4.65854e-005 -8.18502e-006
1140
root  -22.0285 38.0023 31.3996 -148.261 -82.6346 142.228
RightUpLeg  -25.8537 -22.3965 7.96911
RightLeg  17.449 -7.39309 -1.33772
RightFoot  2.07821 1.37556 -11.6364
RightToes  0.000482159 0.542163 -0.142577
Spine  9.18456 -3.71787 -0.891857
Spine1  1.61434 -5.98827 9.67998
HEad  10.2369 -15.7797 0.577811
LeftShoulder1  7.31497 -11.5063 -42.3261
LeftArm  -15.2935 0.819435 -26.1222
LeftForeArm  36.6401 -34.3085 -5.53662
LeftHand  -0.25398 0.0180481 5.50724
RightShoulder  3.87979 6.84795 31.5332
RightArm  -11.8368 -18.1156 37.8704
RightForeArm  18.8592 9.43118 5.28709
RightHand  -0.681662 1.02713 -12.4506
LeftUpLeg  24.7158 21.4241 5.96888
LeftLeg  25.0696 -2.40347 -0.707834
LeftFoot  -10.5752 0.172578 -15.2443
LeftToes  1.06246e-005 4.65854e-005 -8.18502e-006
1141
root  -24.0786 37.9479 31.2676 -168.2 -81.9086 162.071
RightUpLeg  -26.2949 -18.9865 9.9009
RightLeg  24.2734 -7.95612 -4.36255
RightFoot  0.858863 1.69645 -15.7336
RightToes  0.000482159 0.542163 -0.142577
Spine  9.81611 -3.74861 2.21077
Spine1  0.311647 -5.62326 10.2001
HEad  9.84567 -15.366 0.288182
LeftShoulder1  7.28915 -11.4682 -42.2809
LeftArm  -14.2012 4.36487 -28.5509
LeftForeArm  37.8987 -34.9823 -5.63562
LeftHand  -0.25398 0.0180481 5.50724
RightShoulder  3.89439 6.96564 31.2493
RightArm  -13.9461 -18.8026 36.8774
RightForeArm  17.4619 8.08344 4.73834
RightHand  -0.698509 1.07756 -12.6536
LeftUpLeg  20.8852 20.0747 8.33867
LeftLeg  35.3873 -0.927611 -0.325538
LeftFoot  2.36635 1.79544 -15.4033
LeftToes  1.06246e-005 4.65854e-005 -8.18502e-006
1142
root  -25.8089 37.7659 31.0673 -179.981 -80.8436 173.621
RightUpLeg  -25.7476 -14.9704 10.2648
RightLeg  30.5726 -10.5375 -6.87521
RightFoot  -3.04451 1.17918 -16.3172
RightToes  0.000482159 0.542163 -0.142577
Spine  10.7403 -3.92913 3.58782
Spine1  0.0869665 -5.56504 11.6171
HEad  9.07441 -15.4951 1.14349
LeftShoulder1  7.32723 -11.4942 -42.4381
LeftArm  -12.9155 6.69758 -30.2217
LeftForeArm  39.3575 -34.965 -5.55124
LeftHand  -0.25398 0.0180481 5.50724
RightShoulder  4.00678 7.3105 31.1004
RightArm  -15.2188 -18.3506 36.4442
RightForeArm  15.2069 7.39984 4.45582
RightHand  -0.737275 1.21601 -13.0802
LeftUpLeg  13.8323 17.1768 8.71938
LeftLeg  47.9175 0.354345 0.861841
LeftFoot  14.1616 2.70014 -12.2362
LeftToes  1.06246e-005 4.65854e-005 -8.18502e-006
